# xmcd
#
# Track frame offsets: 
#        150
#        23835
#        44332
#        60346
#        81976
#        101688
#        119435
#        133877
#        148873
#        169553
#        188088
#
# Disc length: 2828 seconds
#
# Revision: 0
# Processed by: cddbd v1.5.2PL0 Copyright (c) Steve Scherf et al.
# Submitted via: ExactAudioCopyFreeDBPlugin 1.0
#
DISCID=970b0a0b
DTITLE=Tensheds - Crazy Beautiful
DYEAR=2010
DGENRE=Ballad
TTITLE0=Go Out On The Weekend
TTITLE1=Angel Of London
TTITLE2=Sentimetal Streets
TTITLE3=Stains
TTITLE4=City Of Dreams
TTITLE5=Road Movie
TTITLE6=Love The One You're With
TTITLE7=Sentimental Feelings
TTITLE8=Flying Cars
TTITLE9=Sell Another Soul
TTITLE10=Paradise
EXTD=
EXTT0=
EXTT1=
EXTT2=
EXTT3=
EXTT4=
EXTT5=
EXTT6=
EXTT7=
EXTT8=
EXTT9=
EXTT10=
PLAYORDER=
